<svg width="23" height="23" viewBox="0 0 23 23" fill="none" xmlns="http://www.w3.org/2000/svg">
<path fill-rule="evenodd" clip-rule="evenodd" d="M23 11.5723C23 10.752 22.5017 10.0869 21.8871 10.0869H1.1129C0.498263 10.0869 0 10.752 0 11.5723C0 12.3927 0.498263 13.0577 1.1129 13.0577H21.8871C22.5017 13.0577 23 12.3927 23 11.5723Z" fill="black"/>
<path fill-rule="evenodd" clip-rule="evenodd" d="M23 1.66972C23 0.84936 22.5017 0.184326 21.8871 0.184326H1.1129C0.498263 0.184326 0 0.84936 0 1.66972C0 2.49008 0.498263 3.15511 1.1129 3.15511H21.8871C22.5017 3.15511 23 2.49008 23 1.66972Z" fill="black"/>
<path fill-rule="evenodd" clip-rule="evenodd" d="M23 21.475C23 20.6546 22.5017 19.9896 21.8871 19.9896H1.1129C0.498263 19.9896 0 20.6546 0 21.475C0 22.2953 0.498263 22.9604 1.1129 22.9604H21.8871C22.5017 22.9604 23 22.2953 23 21.475Z" fill="black"/>
</svg>
