<svg width="21" height="24" viewBox="0 0 21 24" fill="none" xmlns="http://www.w3.org/2000/svg">
<path fill-rule="evenodd" clip-rule="evenodd" d="M10.178 0.000154249C10.8001 0.00790117 11.5186 0.305619 11.9063 1.00705L12.1423 1.43404C15.7429 7.94859 18.6781 14.7203 20.9114 21.6672C21.2063 22.5848 20.7202 23.3633 20.1132 23.724C19.5193 24.0768 18.7023 24.124 18.0106 23.6736L11.607 19.5043C10.8993 19.0435 9.93882 19.0423 9.27594 19.4662L3.0024 23.4777C2.2953 23.9298 1.47479 23.8424 0.898757 23.4924C0.320202 23.141 -0.196333 22.3833 0.0737221 21.4586C2.08799 14.5613 4.81056 7.85615 8.20778 1.42446L8.4303 1.00319C8.81532 0.27426 9.55751 -0.00757207 10.178 0.000154249ZM10.1683 2.07503L9.99947 2.39458C6.74144 8.56276 4.11727 14.9845 2.15658 21.5855L8.191 17.7269C9.54384 16.8619 11.3562 16.8952 12.706 17.7741L18.7961 21.7393C16.6283 15.1202 13.8089 8.66189 10.3692 2.43861L10.1683 2.07503Z" fill="black"/>
</svg>
