<svg width="17" height="17" viewBox="0 0 17 17" fill="none" xmlns="http://www.w3.org/2000/svg">
<path d="M3.59778 1.61227C3.91902 1.24344 3.91902 0.64545 3.59778 0.276621C3.27654 -0.0922071 2.75571 -0.0922071 2.43448 0.276621L0.240928 2.79514C-0.0803094 3.16397 -0.0803094 3.76196 0.240928 4.13079L2.43448 6.6493C2.75571 7.01813 3.27654 7.01813 3.59778 6.6493C3.91902 6.28048 3.91902 5.68249 3.59778 5.31366L2.80847 4.40741H13.9839C14.4382 4.40741 14.8065 3.98457 14.8065 3.46296C14.8065 2.94136 14.4382 2.51852 13.9839 2.51852H2.80847L3.59778 1.61227Z" fill="black"/>
<path d="M13.4022 10.3507C13.081 10.7195 13.081 11.3175 13.4022 11.6863L14.1915 12.5926H3.01613C2.56183 12.5926 2.19355 13.0154 2.19355 13.537C2.19355 14.0586 2.56183 14.4815 3.01613 14.4815H14.1915L13.4022 15.3877C13.081 15.7566 13.081 16.3546 13.4022 16.7234C13.7235 17.0922 14.2443 17.0922 14.5655 16.7234L16.7591 14.2049C17.0803 13.836 17.0803 13.238 16.7591 12.8692L14.5655 10.3507C14.2443 9.98187 13.7235 9.98187 13.4022 10.3507Z" fill="black"/>
</svg>
