<svg width="22" height="26" viewBox="0 0 22 26" fill="none" xmlns="http://www.w3.org/2000/svg">
<path d="M10.1132 21.0736L21.1096 10.0931C21.159 10.0438 21.1822 9.97704 21.1764 9.91028L20.435 1.16191C20.4147 0.935504 20.2373 0.758447 20.0105 0.738129L11.2471 0.000873702C11.1803 -0.00493146 11.1105 0.018289 11.064 0.0676329L0.0675718 11.0452C0.0242834 11.0888 0 11.1478 0 11.2092C0 11.2706 0.0242834 11.3295 0.0675718 11.3732L9.78463 21.0736C9.87476 21.1665 10.023 21.1665 10.1132 21.0736ZM11.9333 2.15749L18.4637 2.70898L19.0161 9.22817L9.94745 18.2784L2.86464 11.2106L11.9333 2.15749ZM13.6825 7.56296C13.8121 7.69233 13.966 7.79495 14.1353 7.86496C14.3046 7.93497 14.4861 7.97099 14.6694 7.97098C14.8527 7.97096 15.0342 7.93491 15.2035 7.86488C15.3728 7.79485 15.5267 7.69221 15.6563 7.56282C15.7859 7.43343 15.8887 7.27983 15.9588 7.11078C16.0289 6.94173 16.065 6.76055 16.065 6.57758C16.065 6.39461 16.0289 6.21343 15.9587 6.0444C15.8886 5.87536 15.7858 5.72177 15.6561 5.5924C15.5265 5.46303 15.3727 5.36041 15.2033 5.29041C15.034 5.2204 14.8525 5.18437 14.6692 5.18439C14.4859 5.1844 14.3044 5.22045 14.1351 5.29049C13.9658 5.36052 13.8119 5.46316 13.6824 5.59255C13.5528 5.72194 13.45 5.87554 13.3798 6.04459C13.3097 6.21363 13.2736 6.39482 13.2736 6.57779C13.2737 6.76076 13.3098 6.94193 13.3799 7.11097C13.4501 7.28 13.5529 7.43359 13.6825 7.56296ZM21.9324 13.8026L20.781 12.6561C20.7373 12.6129 20.6783 12.5887 20.6167 12.5887C20.5552 12.5887 20.4962 12.6129 20.4525 12.6561L9.9271 23.1431L3.01874 16.264C2.97502 16.2208 2.91599 16.1966 2.85447 16.1966C2.79294 16.1966 2.73391 16.2208 2.69019 16.264L1.5388 17.4105C1.49551 17.4542 1.47122 17.5131 1.47122 17.5745C1.47122 17.636 1.49551 17.6949 1.5388 17.7385L8.60997 24.786L9.76137 25.9325C9.8515 26.0225 9.99978 26.0225 10.0899 25.9325L21.9324 14.1306C22.0225 14.0406 22.0225 13.8926 21.9324 13.8026Z" fill="white"/>
</svg>
