<svg width="27" height="21" viewBox="0 0 27 21" fill="none" xmlns="http://www.w3.org/2000/svg">
<path d="M11.1036 3.314C11.6693 2.71601 11.6693 1.74648 11.1036 1.14849C10.538 0.550499 9.62083 0.550499 9.05515 1.14849L1.32983 9.31516C1.047 9.61415 0.905579 10.006 0.905579 10.3979C0.905579 10.6055 0.944667 10.8035 1.01549 10.984C1.08618 11.1647 1.19096 11.3339 1.32983 11.4807L9.05515 19.6473C9.62083 20.2453 10.538 20.2453 11.1036 19.6473C11.6693 19.0493 11.6693 18.0798 11.1036 17.4818L5.85106 11.9292H24.5644C25.3644 11.9292 26.0129 11.2436 26.0129 10.3979C26.0129 9.55223 25.3644 8.86666 24.5644 8.86666H5.85106L11.1036 3.314Z" fill="black"/>
</svg>
