<svg width="20" height="16" viewBox="0 0 20 16" fill="none" xmlns="http://www.w3.org/2000/svg">
<path d="M11.8764 2.15634C11.4258 1.66305 11.4258 0.863264 11.8764 0.36997C12.327 -0.123323 13.0576 -0.123323 13.5082 0.36997L19.662 7.10681C19.8873 7.35346 20 7.67673 20 8C20 8.17127 19.9689 8.33458 19.9124 8.48351C19.8561 8.6325 19.7727 8.77208 19.662 8.89319L13.5082 15.63C13.0576 16.1233 12.327 16.1233 11.8764 15.63C11.4258 15.1367 11.4258 14.3369 11.8764 13.8437L16.0605 9.26316H1.15385C0.516596 9.26316 0 8.69762 0 8C0 7.30238 0.516596 6.73684 1.15385 6.73684H16.0605L11.8764 2.15634Z" fill="black"/>
</svg>
