<svg width="22" height="26" viewBox="0 0 22 26" fill="none" xmlns="http://www.w3.org/2000/svg">
<path d="M10.1132 21.0736L21.1096 10.0931C21.159 10.0438 21.1822 9.97704 21.1764 9.91028L20.435 1.16191C20.4147 0.935504 20.2373 0.758447 20.0105 0.738129L11.2471 0.000873702C11.1803 -0.00493146 11.1105 0.018289 11.064 0.0676329L0.0675718 11.0452C0.0242834 11.0888 0 11.1478 0 11.2092C0 11.2706 0.0242834 11.3295 0.0675718 11.3732L9.78463 21.0736C9.87476 21.1665 10.023 21.1665 10.1132 21.0736ZM13.6808 5.59124C14.2245 5.04846 15.1084 5.04846 15.655 5.59124C16.1987 6.13402 16.1987 7.01641 15.655 7.56209C15.1113 8.10487 14.2274 8.10487 13.6808 7.56209C13.137 7.01931 13.137 6.13693 13.6808 5.59124ZM21.9324 13.8026L20.781 12.6561C20.7373 12.6129 20.6783 12.5887 20.6167 12.5887C20.5552 12.5887 20.4962 12.6129 20.4525 12.6561L9.9271 23.1431L3.01874 16.264C2.97502 16.2208 2.91599 16.1966 2.85447 16.1966C2.79294 16.1966 2.73391 16.2208 2.69019 16.264L1.5388 17.4105C1.49551 17.4542 1.47122 17.5131 1.47122 17.5745C1.47122 17.636 1.49551 17.6949 1.5388 17.7385L8.60997 24.786L9.76137 25.9325C9.8515 26.0225 9.99978 26.0225 10.0899 25.9325L21.9324 14.1306C22.0225 14.0406 22.0225 13.8926 21.9324 13.8026Z" fill="black"/>
</svg>
