<svg width="17" height="17" viewBox="0 0 17 17" fill="none" xmlns="http://www.w3.org/2000/svg">
<path d="M4.54171 3.74992H3.75004V1.37492C3.75004 1.16496 3.66663 0.963592 3.51817 0.815126C3.3697 0.666659 3.16834 0.583252 2.95837 0.583252C2.74841 0.583252 2.54705 0.666659 2.39858 0.815126C2.25012 0.963592 2.16671 1.16496 2.16671 1.37492V3.74992H1.37504C1.16508 3.74992 0.963714 3.83333 0.815248 3.98179C0.666781 4.13026 0.583374 4.33162 0.583374 4.54159C0.583374 4.75155 0.666781 4.95291 0.815248 5.10138C0.963714 5.24984 1.16508 5.33325 1.37504 5.33325H4.54171C4.75167 5.33325 4.95303 5.24984 5.1015 5.10138C5.24997 4.95291 5.33337 4.75155 5.33337 4.54159C5.33337 4.33162 5.24997 4.13026 5.1015 3.98179C4.95303 3.83333 4.75167 3.74992 4.54171 3.74992ZM2.95837 6.91659C2.74841 6.91659 2.54705 6.99999 2.39858 7.14846C2.25012 7.29693 2.16671 7.49829 2.16671 7.70825V15.6249C2.16671 15.8349 2.25012 16.0362 2.39858 16.1847C2.54705 16.3332 2.74841 16.4166 2.95837 16.4166C3.16834 16.4166 3.3697 16.3332 3.51817 16.1847C3.66663 16.0362 3.75004 15.8349 3.75004 15.6249V7.70825C3.75004 7.49829 3.66663 7.29693 3.51817 7.14846C3.3697 6.99999 3.16834 6.91659 2.95837 6.91659ZM8.50004 13.2499C8.29008 13.2499 8.08872 13.3333 7.94025 13.4818C7.79178 13.6303 7.70837 13.8316 7.70837 14.0416V15.6249C7.70837 15.8349 7.79178 16.0362 7.94025 16.1847C8.08872 16.3332 8.29008 16.4166 8.50004 16.4166C8.71 16.4166 8.91137 16.3332 9.05983 16.1847C9.2083 16.0362 9.29171 15.8349 9.29171 15.6249V14.0416C9.29171 13.8316 9.2083 13.6303 9.05983 13.4818C8.91137 13.3333 8.71 13.2499 8.50004 13.2499ZM15.625 6.91659H14.8334V1.37492C14.8334 1.16496 14.75 0.963592 14.6015 0.815126C14.453 0.666659 14.2517 0.583252 14.0417 0.583252C13.8317 0.583252 13.6304 0.666659 13.4819 0.815126C13.3334 0.963592 13.25 1.16496 13.25 1.37492V6.91659H12.4584C12.2484 6.91659 12.047 6.99999 11.8986 7.14846C11.7501 7.29693 11.6667 7.49829 11.6667 7.70825C11.6667 7.91822 11.7501 8.11958 11.8986 8.26805C12.047 8.41651 12.2484 8.49992 12.4584 8.49992H15.625C15.835 8.49992 16.0364 8.41651 16.1848 8.26805C16.3333 8.11958 16.4167 7.91822 16.4167 7.70825C16.4167 7.49829 16.3333 7.29693 16.1848 7.14846C16.0364 6.99999 15.835 6.91659 15.625 6.91659ZM14.0417 10.0833C13.8317 10.0833 13.6304 10.1667 13.4819 10.3151C13.3334 10.4636 13.25 10.665 13.25 10.8749V15.6249C13.25 15.8349 13.3334 16.0362 13.4819 16.1847C13.6304 16.3332 13.8317 16.4166 14.0417 16.4166C14.2517 16.4166 14.453 16.3332 14.6015 16.1847C14.75 16.0362 14.8334 15.8349 14.8334 15.6249V10.8749C14.8334 10.665 14.75 10.4636 14.6015 10.3151C14.453 10.1667 14.2517 10.0833 14.0417 10.0833ZM10.0834 10.0833H9.29171V1.37492C9.29171 1.16496 9.2083 0.963592 9.05983 0.815126C8.91137 0.666659 8.71 0.583252 8.50004 0.583252C8.29008 0.583252 8.08872 0.666659 7.94025 0.815126C7.79178 0.963592 7.70837 1.16496 7.70837 1.37492V10.0833H6.91671C6.70675 10.0833 6.50538 10.1667 6.35691 10.3151C6.20845 10.4636 6.12504 10.665 6.12504 10.8749C6.12504 11.0849 6.20845 11.2862 6.35691 11.4347C6.50538 11.5832 6.70675 11.6666 6.91671 11.6666H10.0834C10.2933 11.6666 10.4947 11.5832 10.6432 11.4347C10.7916 11.2862 10.875 11.0849 10.875 10.8749C10.875 10.665 10.7916 10.4636 10.6432 10.3151C10.4947 10.1667 10.2933 10.0833 10.0834 10.0833Z" fill="black"/>
</svg>
