<svg width="22" height="22" viewBox="0 0 22 22" fill="none" xmlns="http://www.w3.org/2000/svg">
<path d="M12.4348 1.43478C12.4348 0.642374 11.7924 0 11 0C10.2076 0 9.56522 0.642374 9.56522 1.43478V9.56522H1.43478C0.642375 9.56522 0 10.2076 0 11C0 11.7924 0.642375 12.4348 1.43478 12.4348H9.56522V20.5652C9.56522 21.3576 10.2076 22 11 22C11.7924 22 12.4348 21.3576 12.4348 20.5652V12.4348H20.5652C21.3576 12.4348 22 11.7924 22 11C22 10.2076 21.3576 9.56522 20.5652 9.56522H12.4348V1.43478Z" fill="black"/>
</svg>
