<svg width="26" height="26" viewBox="0 0 26 26" fill="none" xmlns="http://www.w3.org/2000/svg">
<path fill-rule="evenodd" clip-rule="evenodd" d="M10.9052 1.28338C11.8386 -0.427795 14.1614 -0.427791 15.0948 1.28338L17.9531 6.52373C18.2165 7.00676 18.6719 7.33638 19.191 7.41979L23.9374 8.18243C26.0064 8.51487 26.7321 11.2939 25.1208 12.714L21.6625 15.7621C21.1771 16.1899 20.9489 16.8648 21.0668 17.5235L22.0355 22.9356C22.415 25.0556 20.323 26.7027 18.528 25.6973L13.806 23.0522C13.3015 22.7696 12.6985 22.7696 12.194 23.0522L7.47199 25.6973C5.67701 26.7027 3.58502 25.0555 3.96449 22.9355L4.93322 17.5235C5.05114 16.8648 4.8229 16.1899 4.33749 15.7621L0.879177 12.714C-0.732116 11.2939 -0.00637573 8.51487 2.0626 8.18243L6.80901 7.41979C7.32807 7.33638 7.78345 7.00676 8.04692 6.52373L10.9052 1.28338ZM13.2993 2.39175C13.1659 2.14729 12.8341 2.1473 12.7007 2.39175L9.84243 7.6321C9.26281 8.69476 8.26097 9.41994 7.11903 9.60343L2.37262 10.3661C2.07705 10.4136 1.97338 10.8106 2.20356 11.0134L5.66188 14.0615C6.72977 15.0027 7.23189 16.4874 6.97248 17.9366L6.00375 23.3487C5.94954 23.6515 6.2484 23.8868 6.50483 23.7432L11.2269 21.0981C12.3367 20.4764 13.6633 20.4764 14.7731 21.0981L19.4952 23.7432C19.7516 23.8868 20.0505 23.6515 19.9962 23.3487L19.0275 17.9366C18.7681 16.4874 19.2702 15.0027 20.3381 14.0615L23.7964 11.0134C24.0266 10.8106 23.9229 10.4136 23.6274 10.3661L18.881 9.60343C17.739 9.41994 16.7372 8.69476 16.1576 7.6321L13.2993 2.39175Z" fill="black"/>
</svg>
