<svg width="20" height="22" viewBox="0 0 20 22" fill="none" xmlns="http://www.w3.org/2000/svg">
<path d="M6.99935 11.2363C6.81344 11.2363 6.6317 11.2985 6.47712 11.4151C6.32253 11.5316 6.20205 11.6972 6.1309 11.891C6.05976 12.0848 6.04114 12.2981 6.07741 12.5038C6.11368 12.7096 6.20321 12.8986 6.33467 13.0469C6.46613 13.1952 6.63362 13.2962 6.81597 13.3371C6.99831 13.3781 7.18731 13.3571 7.35907 13.2768C7.53084 13.1965 7.67764 13.0606 7.78093 12.8862C7.88422 12.7117 7.93935 12.5067 7.93935 12.2969C7.93935 12.0156 7.84032 11.7459 7.66403 11.547C7.48775 11.3481 7.24865 11.2363 6.99935 11.2363ZM6.99935 6.4848C6.81344 6.4848 6.6317 6.547 6.47712 6.66354C6.32253 6.78008 6.20205 6.94572 6.1309 7.13952C6.05976 7.33333 6.04114 7.54658 6.07741 7.75232C6.11368 7.95805 6.20321 8.14703 6.33467 8.29536C6.46613 8.44369 6.63362 8.5447 6.81597 8.58563C6.99831 8.62655 7.18731 8.60555 7.35907 8.52527C7.53084 8.445 7.67764 8.30906 7.78093 8.13464C7.88422 7.96023 7.93935 7.75517 7.93935 7.5454C7.93935 7.26411 7.84032 6.99434 7.66403 6.79544C7.48775 6.59654 7.24865 6.4848 6.99935 6.4848ZM10.28 8.60601C10.0306 8.60601 9.79156 8.71775 9.61527 8.91665C9.43899 9.11555 9.33995 9.38532 9.33995 9.66661V10.7272C9.33995 11.0085 9.43899 11.2783 9.61527 11.4772C9.79156 11.6761 10.0306 11.7878 10.28 11.7878C10.5293 11.7878 10.7683 11.6761 10.9446 11.4772C11.1209 11.2783 11.22 11.0085 11.22 10.7272V9.66661C11.22 9.38532 11.1209 9.11555 10.9446 8.91665C10.7683 8.71775 10.5293 8.60601 10.28 8.60601ZM18.2699 7.08934C17.9457 6.87882 17.5875 6.74321 17.2163 6.69041C16.8452 6.6376 16.4684 6.66866 16.108 6.78176C15.7328 6.89514 15.3835 7.09764 15.0834 7.3757L4.17935 0.259038C4.03645 0.16595 3.87436 0.116943 3.70935 0.116943C3.54435 0.116943 3.38225 0.16595 3.23935 0.259038C3.09415 0.351126 2.97325 0.485092 2.88901 0.647224C2.80478 0.809355 2.76024 0.99383 2.75995 1.18176V15.1499C2.20521 15.3611 1.72423 15.7655 1.38635 16.305C1.04847 16.8444 0.871148 17.491 0.879951 18.1515C0.87969 18.9808 1.16645 19.7775 1.67915 20.3719C2.19184 20.9662 2.88995 21.3112 3.62475 21.3333H4.16995C7.25008 21.3251 10.2735 20.3975 12.9331 18.6447C15.5928 16.8918 17.794 14.3761 19.3134 11.353C19.6642 10.6296 19.7526 9.78085 19.5597 8.98549C19.3668 8.19013 18.9078 7.51032 18.2794 7.08934H18.2699ZM4.63995 3.01661L13.9366 9.07267C12.9052 10.8091 11.5264 12.2476 9.91146 13.2719C8.29655 14.2963 6.49078 14.8779 4.63995 14.9696V3.01661ZM17.6777 10.3136C16.2823 13.0878 14.2443 15.3814 11.782 16.9489C9.3198 18.5165 6.52604 19.2988 3.69995 19.2121C3.45065 19.2121 3.21156 19.1003 3.03527 18.9014C2.85899 18.7025 2.75995 18.4328 2.75995 18.1515C2.75922 18.0094 2.7838 17.8685 2.83224 17.7373C2.88069 17.6062 2.952 17.4873 3.04195 17.3878C3.21855 17.1958 3.45468 17.0892 3.69995 17.0909H4.17935C6.593 17.0898 8.96311 16.3655 11.0474 14.9921C13.1316 13.6188 14.8553 11.6455 16.0421 9.27419C16.0992 9.15785 16.1772 9.05624 16.2711 8.97588C16.3649 8.89552 16.4727 8.83817 16.5873 8.80752C16.8244 8.73412 17.0774 8.76839 17.2923 8.90298C17.508 9.03377 17.6699 9.25436 17.7437 9.5178C17.8174 9.78125 17.7971 10.0668 17.6871 10.3136H17.6777Z" fill="black"/>
</svg>
